**ABCDEFGHIJKLMNOPQRSTUVWXYZabcdefghijklmnopqrstuvwxyz**************************
**PARASOLID !"#$%&'()*+,-./:;<=>?@[\]^_`{|}~0123456789**************************
**PART1;
MC=x64/Windows NT;
MC_MODEL=genuineintel family 6 model 14 stepping 9, intel(r) core(tm) i7-7700 cpu @ 3.60ghz;
MC_ID=lemon;
OS=windows nt (x64);
OS_RELEASE=6.3 windows 10 pro (build 17134) ;
FRU=mdc_ugii_v7.0_djl_can_vrh;
APPL=unigraphics;
SITE=unknown;
USER=ranej;
FORMAT=text;
GUISE=transmit;
KEY=geom_gopan;
FILE=C:\Users\ranej\Downloads\geom_gopan.x_t;
DATE=3-jul-2019;
**PART2;
SCH=SCH_3000280_30000;
USFLD_SIZE=0;
**PART3;
**END_OF_HEADER*****************************************************************
T51 : TRANSMIT FILE created by modeller version 300028023 SCH_3000280_30000_1300
6205 0 10 19 CCCCCCCI4 mesh1006 0 I8 polyline1008 0 CCCCCCCCCCZ1 15 0 0 0 0 0 0
 0 0 0 1e3 1e-8 0 0 0 1 0 1 2 11 255 2 15 0 1 3 0 1 4 0 0 0 12 33 CCCCCCI4 mesh1
006 0 I8 polyline1008 0 CCCCCCCDI5 owner1040 0 CCCCCCI13 boundary_mesh1006 0 I17
 boundary_polyline1008 0 CCCA16 index_map_offset0 0 1 dA9 index_map82 0 A17 node
_id_index_map82 0 A20 schema_embedding_map82 0 A5 child12 0 A14 lowest_node_id0
 0 1 dZ3 55 5 6 0 0 0 0 0 0 1e3 1e-8 2 7 0 1 0 1 1 8 9 10 0 0 0 11 12 0 0 0 0 0
 0 0 11 4 14 0 1 7 0 1 13 2 0 0 12 7 153 14 15 0 0 0 0 0 0 1e3 1e-8 4 16 3 1 0 1
 1 17 18 19 0 0 0 20 21 0 0 0 0 0 0 0 11 13 13 0 1 16 0 1 22 4 0 0 12 16 153 23
 24 0 0 0 0 0 0 1e3 1e-8 13 25 7 1 0 1 1 26 27 28 0 0 0 29 30 0 0 0 0 0 0 0 11 2
2 12 0 1 25 0 1 31 13 0 0 12 25 153 32 33 0 0 0 0 0 0 1e3 1e-8 22 34 16 1 0 1 1
 35 36 37 0 0 0 38 39 0 0 0 0 0 0 0 11 31 11 0 1 34 0 1 40 22 0 0 12 34 153 41 4
2 0 0 0 0 0 0 1e3 1e-8 31 43 25 1 0 1 1 44 45 46 0 0 0 47 48 0 0 0 0 0 0 0 11 40
 10 0 1 43 0 1 49 31 0 0 12 43 153 50 51 0 0 0 0 0 0 1e3 1e-8 40 52 34 1 0 1 1 5
3 54 55 0 0 0 56 57 0 0 0 0 0 0 0 11 49 9 0 1 52 0 1 58 40 0 0 12 52 153 59 60 0
 0 0 0 0 0 1e3 1e-8 49 61 43 1 0 1 1 62 63 64 0 0 0 65 66 0 0 0 0 0 0 0 11 58 8
 0 1 61 0 1 67 49 0 0 12 61 153 68 69 0 0 0 0 0 0 1e3 1e-8 58 70 52 1 0 1 1 71 7
2 73 0 0 0 74 75 0 0 0 0 0 0 0 11 67 7 0 1 70 0 1 76 58 0 0 12 70 153 77 78 0 0
 0 0 0 0 1e3 1e-8 67 79 61 1 0 1 1 80 81 82 0 0 0 83 84 0 0 0 0 0 0 0 11 76 6 0
 1 79 0 1 85 67 0 0 12 79 153 86 87 0 0 0 0 0 0 1e3 1e-8 76 88 70 1 0 1 1 89 90
 91 0 0 0 92 93 0 0 0 0 0 0 0 11 85 5 0 1 88 0 1 94 76 0 0 12 88 153 95 96 0 0 0
 0 0 0 1e3 1e-8 85 97 79 1 0 1 1 98 99 100 0 0 0 101 102 0 0 0 0 0 0 0 11 94 4 0
 1 97 0 1 103 85 0 0 12 97 153 104 105 0 0 0 0 0 0 1e3 1e-8 94 106 88 1 0 1 1 10
7 108 109 0 0 0 110 111 0 0 0 0 0 0 0 11 103 3 0 1 106 0 1 112 94 0 0 12 106 80
 113 114 0 0 0 0 0 0 1e3 1e-8 103 115 97 1 0 1 1 116 117 118 0 0 0 119 120 0 0 0
 0 0 0 0 11 112 2 0 1 115 0 1 121 103 0 0 12 115 85 122 123 0 0 0 0 0 0 1e3 1e-8
 112 124 106 1 0 1 1 125 126 127 0 0 0 128 129 0 0 0 0 0 0 0 11 121 1 0 1 124 0
 1 0 112 0 0 12 124 138 130 131 0 0 0 0 0 0 1e3 1e-8 121 132 115 1 0 1 1 133 134
 135 136 0 0 137 138 139 0 0 0 0 0 0 81 255 1 130 138 140 124 141 0 0 0 142 70 1
1 CI9 list_type0 0 1 uI10 notransmit0 0 1 lCCCDCCDI12 finger_index0 0 1 dI12 fin
ger_block1012 0 CZ131 0 4 T124 0 0 4 20 1 143 143 13 255 133 3 0 124 0 144 0 0 1
45 0 51 255 134 29 0 144 146 0 0 +0 0 .01 0 0 -1 .04875 -1 0 0 31 255 135 24 0 1
47 148 0 0 +0 0 0 0 0 -1 1 1224646799147352e-31 0 .04875 29 255 136 60 0 139 149
 0 .0486376185049432 .003308257270467915 .01 19 8 CCCCCCCA5 owner12 0 Z137 1 0 1
24 145 0 150 V0 16 255 138 2 151 ?152 0 153 148 153 153 124 18 255 139 57 0 154
 0 155 136 ?124 17 255 154 0 156 157 157 139 158 159 0 152 -18 155 84 0 157 139
 0 149 ?124 17 157 0 156 154 154 155 152 138 0 160 -29 149 108 0 155 0 136 .0486
376185049432 -.003308257270467905 .01 15 255 156 62 0 154 161 0 17 152 0 162 160
 160 139 157 138 0 163 +17 160 0 162 152 152 155 163 153 0 164 +15 162 25 0 152
 144 165 17 163 0 166 164 164 139 160 153 0 167 -16 153 58 168 ?160 138 147 148
 138 138 124 17 164 0 166 163 163 155 167 169 0 158 -15 166 100 0 163 170 0 17 1
67 0 171 158 158 139 164 169 0 0 +16 169 80 172 ?167 159 0 173 159 159 124 17 15
8 0 171 167 167 155 154 159 0 0 +15 171 92 0 158 174 0 16 159 76 175 ?158 176 16
9 173 169 169 124 81 1 175 125 177 159 0 0 168 178 179 16 176 82 180 ?181 147 15
9 182 0 0 124 31 173 106 0 159 182 148 0 +.0448885607790078 0 .01 0 0 1 1 0 0 .0
05 31 182 107 0 176 0 173 0 +.0448885607790078 0 .02275 0 0 1 1 0 0 .005 31 148
 4 0 138 173 135 0 +0 0 .01 0 0 -1 1 1224646799147352e-31 0 .04875 81 1 180 121
 177 176 0 0 183 151 184 17 181 0 185 181 181 0 186 176 0 0 +16 147 21 187 ?188
 153 176 135 0 0 124 81 1 187 45 177 147 0 0 0 183 189 17 188 0 190 188 188 0 19
1 147 0 0 +15 190 20 0 188 192 0 17 191 0 165 191 191 0 188 147 0 0 -15 165 27 0
 191 144 0 14 255 144 26 193 ?161 0 162 133 134 +0 0 161 0 150 81 1 193 132 194
 144 195 0 0 196 197 14 161 6 196 ?192 144 156 133 198 -0 0 192 144 150 13 150 3
0 0 0 0 0 0 0 137 144 81 1 196 133 194 161 178 0 193 199 200 14 192 17 199 ?174
 161 190 133 146 +0 0 174 161 150 50 255 198 7 0 161 201 146 0 +0 0 .01 0 0 -1 -
1 0 0 51 201 103 0 174 202 198 0 -.0448885607790078 0 .02275 0 0 -1 .005 -1 0 0
 50 146 23 0 192 198 134 0 +0 0 0 0 0 -1 -1 0 0 14 174 88 203 ?204 192 205 133 2
01 -0 0 204 192 150 50 202 104 0 170 206 201 0 +.0448885607790078 0 .01 0 0 1 1
 0 0 14 170 97 207 ?0 204 166 133 202 -0 0 0 204 150 50 206 105 0 204 0 202 0 +.
0448885607790078 0 .02275 0 0 1 1 0 0 14 204 93 208 ?170 174 185 133 206 +0 0 17
0 174 150 81 1 208 136 194 204 209 0 203 207 210 15 185 96 0 181 204 0 80 255 1
 194 0 211 8001 0 0 0 0 3 5 0 0 0 FFFFTFTFFFFFFF2 81 1 209 129 177 204 0 208 212
 213 214 81 1 203 135 194 174 213 0 199 208 215 81 1 207 137 194 170 212 0 208 0
 216 83 255 3 210 .596063172350652 .666666666666667 .686259250782025 81 1 212 12
8 177 170 0 207 195 209 217 83 3 216 .596063172350652 .666666666666667 .68625925
0782025 80 1 177 218 219 9000 1 1 1 1 1 1 1 1 0 FFFFTFTFFFFFFF3 81 1 195 127 177
 144 0 193 178 212 220 84 255 32 217 790a4f895e96732ff3acc29074ab643d81 1 178 12
6 177 161 0 196 175 195 221 84 32 220 8a722618dc6b963442ec7a2b5137674784 32 221
 6ea05a77f5284a7134d2a39a69e6695279 255 15 219 UGS/ObjectState81 1 213 130 177 1
74 0 203 209 0 222 81 1 199 134 194 192 183 0 196 203 223 83 3 215 .596063172350
652 .666666666666667 .686259250782025 81 1 183 48 177 192 0 199 187 180 224 83 3
 223 .596063172350652 .666666666666667 .686259250782025 84 32 224 76f941da225edc
521fda64cde82809ce84 32 222 e75931f8381af165acffa431fc57d73884 32 214 35bc54f32d
dc584303aaf66fd2a4191a79 15 211 SDL/TYSA_COLOUR15 205 91 0 186 174 171 17 186 0
 205 186 186 0 181 176 0 0 -83 3 200 .596063172350652 .666666666666667 .68625925
0782025 83 3 197 .596063172350652 .666666666666667 .686259250782025 84 32 189 98
def5545394ea42d23238c92907e2b981 1 151 122 177 138 0 0 180 172 225 84 32 184 0c7
d733053f5bc619d5c74f0f678941181 1 172 123 177 169 0 0 151 168 226 84 32 225 da10
446b11b5477b4e637a97d382f43d81 1 168 124 177 153 0 0 172 175 227 84 32 226 d7ed3
196d9fa3263e76cc375b288d72484 32 227 d37721d5d79536205aff8087ad346a4784 32 179 b
a8094b48c2b3edae27cd99281d1274c19 145 31 0 124 0 137 133 S0 74 4 CI16 index_map_
offset0 0 1 dCCZ20 143 4 0 0 213 141 207 130 0 0 0 0 0 0 0 0 0 0 0 0 0 0 0 0 81
 2 141 131 228 124 0 130 0 0 229 230 80 2 228 231 232 8004 0 0 0 0 3 5 0 0 0 FFT
FFFFFFFFFFF2 3 83 1 229 7830.64 84 8 230 Kg/Cu M 79 16 232 SDL/TYSA_DENSITY80 1
 140 233 234 9000 0 0 0 0 3 5 0 0 0 FFTFFFFFFFFFFF1 82 255 1 142 129 79 24 234 U
G2/BODY_COLOR_ATTRIBUTE81 1 122 85 140 115 235 0 0 0 236 70 123 0 4 T115 0 0 4 2
0 1 237 237 13 125 30 0 115 0 238 0 0 239 0 51 126 29 0 238 240 0 0 -.0448885607
790078 0 .03275 0 0 -1 .005 -1 0 0 31 127 24 0 241 242 0 0 +.0448885607790078 0
 .02275 0 0 1 1 0 0 .005 19 128 1 0 115 239 0 243 V0 16 129 2 244 ?245 0 241 242
 0 0 115 81 1 244 77 177 129 0 0 0 246 247 17 245 0 248 245 245 0 249 129 0 0 +1
6 241 21 246 ?250 129 0 127 0 0 115 31 242 4 0 129 0 127 0 +.0448885607790078 0
 .03275 0 0 1 1 0 0 .005 81 1 246 78 177 241 0 0 244 251 252 17 250 0 253 250 25
0 0 254 241 0 0 +15 253 27 0 250 238 0 17 254 0 255 254 254 0 250 241 0 0 -15 25
5 20 0 254 256 0 14 256 17 257 ?0 258 255 125 240 -0 0 0 258 243 81 1 257 84 194
 256 259 0 260 0 261 14 258 6 260 ?256 238 248 125 262 +0 0 256 238 243 50 240 2
3 0 256 262 126 0 +.0448885607790078 0 .02275 0 0 1 1 0 0 13 243 3 0 0 0 0 0 0 1
28 238 14 238 26 263 ?258 0 264 125 126 -0 0 258 0 243 81 1 263 82 194 238 251 0
 0 260 265 15 264 25 0 249 238 253 17 249 0 264 249 249 0 245 129 0 0 -81 1 251
 79 177 238 0 263 246 266 267 81 1 260 83 194 258 266 0 263 257 268 83 3 265 .59
6063172350652 .666666666666667 .686259250782025 81 1 266 80 177 258 0 260 251 25
9 269 83 3 268 .596063172350652 .666666666666667 .686259250782025 81 1 259 81 17
7 256 0 257 266 0 270 84 32 269 60e980bf6cbb985fdb063a583dbf12e784 32 270 e18de6
f54590d7b915a341fbf3445c7284 32 267 e43f65fa0a467b74afa03d96fc92165c50 262 7 0 2
58 0 240 0 +.0448885607790078 0 .03275 0 0 1 1 0 0 15 248 5 0 245 258 0 83 3 261
 .596063172350652 .666666666666667 .686259250782025 84 32 252 0c7d733053f5bc619d
5c74f0f678941184 32 247 8ee90cb98d90695410b3e8f37d769c9819 239 31 0 115 0 128 12
5 S0 74 20 237 4 0 0 235 259 257 122 0 0 0 0 0 0 0 0 0 0 0 0 0 0 0 0 81 2 235 76
 228 115 0 122 0 0 271 272 83 1 271 7830.64 84 8 272 Kg/Cu M 82 1 236 129 81 1 1
13 80 140 106 273 0 0 0 274 70 114 0 4 T106 0 0 4 20 1 275 275 13 116 30 0 106 0
 276 0 0 277 0 51 117 29 0 276 278 0 0 -.0448885607790078 0 .03275 0 0 1 .005 -1
 0 0 31 118 24 0 279 280 0 0 +.0448885607790078 0 .04275 0 0 1 1 0 0 .005 19 119
 1 0 106 277 0 281 V0 16 120 2 282 ?283 0 279 280 0 0 106 81 1 282 62 177 120 0
 0 0 284 285 17 283 0 286 283 283 0 287 120 0 0 +16 279 21 284 ?288 120 0 118 0
 0 106 31 280 4 0 120 0 118 0 +.0448885607790078 0 .03275 0 0 1 1 0 0 .005 81 1
 284 63 177 279 0 0 282 289 290 17 288 0 291 288 288 0 292 279 0 0 +15 291 20 0
 288 293 0 17 292 0 294 292 292 0 288 279 0 0 -15 294 27 0 292 276 0 14 276 26 2
95 ?296 0 286 116 117 -0 0 296 0 281 81 1 295 77 194 276 289 0 0 297 298 14 296
 6 297 ?293 276 299 116 300 +0 0 293 276 281 15 286 25 0 283 276 294 13 281 3 0
 0 0 0 0 0 119 276 81 1 297 78 194 296 301 0 295 302 303 14 293 17 302 ?0 296 29
1 116 278 -0 0 0 296 281 15 299 5 0 287 296 0 50 300 7 0 296 0 278 0 +.044888560
7790078 0 .03275 0 0 -1 1 0 0 50 278 23 0 293 300 117 0 +.0448885607790078 0 .04
275 0 0 -1 1 0 0 17 287 0 299 287 287 0 283 120 0 0 -81 1 302 79 194 293 304 0 2
97 0 305 81 1 304 66 177 293 0 302 301 0 306 83 3 305 .596063172350652 .66666666
6666667 .686259250782025 81 1 301 65 177 296 0 297 289 304 307 84 32 306 1b3f345
942421c8dd27b196e016398af81 1 289 64 177 276 0 295 284 301 308 84 32 307 e9e3039
f34613d94860661bf05a1e3bd84 32 308 8df617c0d1fde7cde394784f71bf7a3983 3 303 .596
063172350652 .666666666666667 .686259250782025 83 3 298 .596063172350652 .666666
666666667 .686259250782025 84 32 290 46bde744e47872b3f35b1ceb112bbb3184 32 285 8
ee90cb98d90695410b3e8f37d769c9819 277 31 0 106 0 119 116 S0 74 20 275 4 0 0 304
 273 302 113 0 0 0 0 0 0 0 0 0 0 0 0 0 0 0 0 81 2 273 76 228 106 0 113 0 0 309 3
10 83 1 309 7830.64 84 8 310 Kg/Cu M 82 1 274 129 81 1 104 153 140 97 311 0 0 0
 312 70 105 0 4 T97 0 0 4 20 1 313 313 13 107 30 0 97 0 314 0 0 315 0 51 108 29
 0 314 316 0 0 -.0448885607790078 0 .04275 0 0 1 .005 -1 0 0 31 109 24 0 317 318
 0 0 +.0448885607790078 0 .05275 0 0 1 1 0 0 .005 19 110 1 0 97 315 0 319 V0 16
 111 2 320 ?321 0 317 318 0 0 97 81 1 320 144 177 111 0 0 0 322 323 17 321 0 324
 321 321 0 325 111 0 0 +16 317 21 322 ?326 111 0 109 0 0 97 31 318 4 0 111 0 109
 0 +.0448885607790078 0 .04275 0 0 1 1 0 0 .005 81 1 322 145 177 317 0 0 320 327
 328 17 326 0 329 326 326 0 330 317 0 0 +15 329 20 0 326 331 0 17 330 0 332 330
 330 0 326 317 0 0 -15 332 27 0 330 314 0 14 314 26 333 ?334 0 324 107 108 -0 0
 334 0 319 81 1 333 150 194 314 335 0 0 336 337 14 334 6 336 ?331 314 338 107 33
9 +0 0 331 314 319 15 324 25 0 321 314 332 13 319 3 0 0 0 0 0 0 110 314 81 1 336
 151 194 334 327 0 333 340 341 14 331 17 340 ?0 334 329 107 316 -0 0 0 334 319 1
5 338 5 0 325 334 0 50 339 7 0 334 0 316 0 +.0448885607790078 0 .04275 0 0 -1 1
 0 0 50 316 23 0 331 339 108 0 +.0448885607790078 0 .05275 0 0 -1 1 0 0 17 325 0
 338 325 325 0 321 111 0 0 -81 1 340 152 194 331 342 0 336 0 343 81 1 342 147 17
7 331 0 340 327 335 344 83 3 343 .596063172350652 .666666666666667 .686259250782
025 81 1 327 146 177 334 0 336 322 342 345 81 1 335 148 177 314 0 333 342 0 346
 84 32 344 605b38dce60b850265cd9c1597b42e0584 32 346 ae4a8f56fe269b05c2176aa2cb4
f684184 32 345 4383eedcc526e43ad74bfe4403e50a5383 3 341 .596063172350652 .666666
666666667 .686259250782025 83 3 337 .596063172350652 .666666666666667 .686259250
782025 84 32 328 ad9781d48a0e083d8097bc896b264c8484 32 323 46bde744e47872b3f35b1
ceb112bbb3119 315 31 0 97 0 110 107 S0 74 20 313 4 0 0 335 311 340 104 0 0 0 0 0
 0 0 0 0 0 0 0 0 0 0 0 81 2 311 149 228 97 0 104 0 0 347 348 83 1 347 7830.64 84
 8 348 Kg/Cu M 82 1 312 129 81 1 95 153 140 88 349 0 0 0 350 70 96 0 4 T88 0 0 4
 20 1 351 351 13 98 30 0 88 0 352 0 0 353 0 51 99 29 0 352 354 0 0 -.04488856077
90078 0 .05275 0 0 1 .005 -1 0 0 31 100 24 0 355 356 0 0 +.0448885607790078 0 .0
6275 0 0 1 1 0 0 .005 19 101 1 0 88 353 0 357 V0 16 102 2 358 ?359 0 355 356 0 0
 88 81 1 358 145 177 102 0 0 360 361 362 17 359 0 363 359 359 0 364 102 0 0 +16
 355 21 360 ?365 102 0 100 0 0 88 31 356 4 0 102 0 100 0 +.0448885607790078 0 .0
5275 0 0 1 1 0 0 .005 81 1 360 144 177 355 0 0 0 358 366 17 365 0 367 365 365 0
 368 355 0 0 +15 367 20 0 365 369 0 17 368 0 370 368 368 0 365 355 0 0 -15 370 2
7 0 368 352 0 14 352 26 371 ?372 0 363 98 99 -0 0 372 0 357 81 1 371 150 194 352
 373 0 0 374 375 14 372 6 374 ?369 352 376 98 377 +0 0 369 352 357 15 363 25 0 3
59 352 370 13 357 3 0 0 0 0 0 0 101 352 81 1 374 151 194 372 361 0 371 378 379 1
4 369 17 378 ?0 372 367 98 354 -0 0 0 372 357 15 376 5 0 364 372 0 50 377 7 0 37
2 0 354 0 +.0448885607790078 0 .05275 0 0 -1 1 0 0 50 354 23 0 369 377 99 0 +.04
48885607790078 0 .06275 0 0 -1 1 0 0 17 364 0 376 364 364 0 359 102 0 0 -81 1 37
8 152 194 369 380 0 374 0 381 81 1 380 147 177 369 0 378 361 373 382 83 3 381 .5
96063172350652 .666666666666667 .686259250782025 81 1 361 146 177 372 0 374 358
 380 383 81 1 373 148 177 352 0 371 380 0 384 84 32 382 1c4caa35b3bbaecee3595015
0a71668b84 32 384 b6e72dd87fe9a0d263f40fdbb8820d2284 32 383 0759d21be635124a1398
517b810a581383 3 379 .596063172350652 .666666666666667 .686259250782025 83 3 375
 .596063172350652 .666666666666667 .686259250782025 84 32 366 6572bfefda5c0c8924
618717accaebcb84 32 362 ad9781d48a0e083d8097bc896b264c8419 353 31 0 88 0 101 98
 S0 74 20 351 4 0 0 373 349 378 95 0 0 0 0 0 0 0 0 0 0 0 0 0 0 0 0 81 2 349 149
 228 88 0 95 0 0 385 386 83 1 385 7830.64 84 8 386 Kg/Cu M 82 1 350 129 81 1 86
 153 140 79 387 0 0 0 388 70 87 0 4 T79 0 0 4 20 1 389 389 13 89 30 0 79 0 390 0
 0 391 0 51 90 29 0 390 392 0 0 -.0448885607790078 0 .06275 0 0 1 .005 -1 0 0 31
 91 24 0 393 394 0 0 +.0448885607790078 0 .07275 0 0 1 1 0 0 .005 19 92 1 0 79 3
91 0 395 V0 16 93 2 396 ?397 0 393 394 0 0 79 81 1 396 144 177 93 0 0 0 398 399
 17 397 0 400 397 397 0 401 93 0 0 +16 393 21 398 ?402 93 0 91 0 0 79 31 394 4 0
 93 0 91 0 +.0448885607790078 0 .06275 0 0 1 1 0 0 .005 81 1 398 145 177 393 0 0
 396 403 404 17 402 0 405 402 402 0 406 393 0 0 +15 405 20 0 402 407 0 17 406 0
 408 406 406 0 402 393 0 0 -15 408 27 0 406 390 0 14 390 26 409 ?410 0 400 89 90
 -0 0 410 0 395 81 1 409 150 194 390 411 0 0 412 413 14 410 6 412 ?407 390 414 8
9 415 +0 0 407 390 395 15 400 25 0 397 390 408 13 395 3 0 0 0 0 0 0 92 390 81 1
 412 151 194 410 416 0 409 417 418 14 407 17 417 ?0 410 405 89 392 -0 0 0 410 39
5 15 414 5 0 401 410 0 50 415 7 0 410 0 392 0 +.0448885607790078 0 .06275 0 0 -1
 1 0 0 50 392 23 0 407 415 90 0 +.0448885607790078 0 .07275 0 0 -1 1 0 0 17 401
 0 414 401 401 0 397 93 0 0 -81 1 417 152 194 407 403 0 412 0 419 81 1 403 146 1
77 407 0 417 398 416 420 83 3 419 .596063172350652 .666666666666667 .68625925078
2025 81 1 416 147 177 410 0 412 403 411 421 84 32 420 60c189fbd9c81c9e74362a8a80
db330381 1 411 148 177 390 0 409 416 0 422 84 32 421 2a91b5233065d6220e60e39aee7
a870e84 32 422 ccc59063bf6a2cdfcf4c5a8a73c1048f83 3 418 .596063172350652 .666666
666666667 .686259250782025 83 3 413 .596063172350652 .666666666666667 .686259250
782025 84 32 404 55756c61efda7730e7f8fb408dbbd99d84 32 399 6572bfefda5c0c8924618
717accaebcb19 391 31 0 79 0 92 89 S0 74 20 389 4 0 0 411 387 417 86 0 0 0 0 0 0
 0 0 0 0 0 0 0 0 0 0 81 2 387 149 228 79 0 86 0 0 423 424 83 1 423 7830.64 84 8
 424 Kg/Cu M 82 1 388 129 81 1 77 153 140 70 425 0 0 0 426 70 78 0 4 T70 0 0 4 2
0 1 427 427 13 80 30 0 70 0 428 0 0 429 0 51 81 29 0 428 430 0 0 -.0448885607790
078 0 .07275 0 0 1 .005 -1 0 0 31 82 24 0 431 432 0 0 +.0448885607790078 0 .0827
5 0 0 1 1 0 0 .005 19 83 1 0 70 429 0 433 V0 16 84 2 434 ?435 0 431 432 0 0 70 8
1 1 434 144 177 84 0 0 0 436 437 17 435 0 438 435 435 0 439 84 0 0 +16 431 21 43
6 ?440 84 0 82 0 0 70 31 432 4 0 84 0 82 0 +.0448885607790078 0 .07275 0 0 1 1 0
 0 .005 81 1 436 145 177 431 0 0 434 441 442 17 440 0 443 440 440 0 444 431 0 0
 +15 443 20 0 440 445 0 17 444 0 446 444 444 0 440 431 0 0 -15 446 27 0 444 428
 0 14 428 26 447 ?448 0 438 80 81 -0 0 448 0 433 81 1 447 150 194 428 449 0 0 45
0 451 14 448 6 450 ?445 428 452 80 453 +0 0 445 428 433 15 438 25 0 435 428 446
 13 433 3 0 0 0 0 0 0 83 428 81 1 450 151 194 448 454 0 447 455 456 14 445 17 45
5 ?0 448 443 80 430 -0 0 0 448 433 15 452 5 0 439 448 0 50 453 7 0 448 0 430 0 +
.0448885607790078 0 .07275 0 0 -1 1 0 0 50 430 23 0 445 453 81 0 +.0448885607790
078 0 .08275 0 0 -1 1 0 0 17 439 0 452 439 439 0 435 84 0 0 -81 1 455 152 194 44
5 441 0 450 0 457 81 1 441 146 177 445 0 455 436 454 458 83 3 457 .5960631723506
52 .666666666666667 .686259250782025 81 1 454 147 177 448 0 450 441 449 459 84 3
2 458 8dd2ace60dd5092abd6d9295ddce572881 1 449 148 177 428 0 447 454 0 460 84 32
 459 54a210819e800c8f40a546a71c20e68684 32 460 8ed5aa55df8942c78f16dff019fc282c8
3 3 456 .596063172350652 .666666666666667 .686259250782025 83 3 451 .59606317235
0652 .666666666666667 .686259250782025 84 32 442 5911082067cd14450c3012c7d2c0104
b84 32 437 55756c61efda7730e7f8fb408dbbd99d19 429 31 0 70 0 83 80 S0 74 20 427 4
 0 0 449 425 455 77 0 0 0 0 0 0 0 0 0 0 0 0 0 0 0 0 81 2 425 149 228 70 0 77 0 0
 461 462 83 1 461 7830.64 84 8 462 Kg/Cu M 82 1 426 129 81 1 68 153 140 61 463 0
 0 0 464 70 69 0 4 T61 0 0 4 20 1 465 465 13 71 30 0 61 0 466 0 0 467 0 51 72 29
 0 466 468 0 0 -.0448885607790078 0 .08275 0 0 1 .005 -1 0 0 31 73 24 0 469 470
 0 0 +.0448885607790078 0 .09275 0 0 1 1 0 0 .005 19 74 1 0 61 467 0 471 V0 16 7
5 2 472 ?473 0 469 470 0 0 61 81 1 472 144 177 75 0 0 0 474 475 17 473 0 476 473
 473 0 477 75 0 0 +16 469 21 474 ?478 75 0 73 0 0 61 31 470 4 0 75 0 73 0 +.0448
885607790078 0 .08275 0 0 1 1 0 0 .005 81 1 474 145 177 469 0 0 472 479 480 17 4
78 0 481 478 478 0 482 469 0 0 +15 481 20 0 478 483 0 17 482 0 484 482 482 0 478
 469 0 0 -15 484 27 0 482 466 0 14 466 26 485 ?486 0 476 71 72 -0 0 486 0 471 81
 1 485 150 194 466 487 0 0 488 489 14 486 6 488 ?483 466 490 71 491 +0 0 483 466
 471 15 476 25 0 473 466 484 13 471 3 0 0 0 0 0 0 74 466 81 1 488 151 194 486 49
2 0 485 493 494 14 483 17 493 ?0 486 481 71 468 -0 0 0 486 471 15 490 5 0 477 48
6 0 50 491 7 0 486 0 468 0 +.0448885607790078 0 .08275 0 0 -1 1 0 0 50 468 23 0
 483 491 72 0 +.0448885607790078 0 .09275 0 0 -1 1 0 0 17 477 0 490 477 477 0 47
3 75 0 0 -81 1 493 152 194 483 479 0 488 0 495 81 1 479 146 177 483 0 493 474 49
2 496 83 3 495 .596063172350652 .666666666666667 .686259250782025 81 1 492 147 1
77 486 0 488 479 487 497 84 32 496 5ab4a0139ecfb96076a5918ee9da2ab981 1 487 148
 177 466 0 485 492 0 498 84 32 497 2b91b114981456d22aafaeaceafac67784 32 498 0d4
da4ae1c3e4a83be5ef52e16e3366183 3 494 .596063172350652 .666666666666667 .6862592
50782025 83 3 489 .596063172350652 .666666666666667 .686259250782025 84 32 480 7
124bc289b5d74bc8eabafb07adc265384 32 475 5911082067cd14450c3012c7d2c0104b19 467
 31 0 61 0 74 71 S0 74 20 465 4 0 0 487 463 493 68 0 0 0 0 0 0 0 0 0 0 0 0 0 0 0
 0 81 2 463 149 228 61 0 68 0 0 499 500 83 1 499 7830.64 84 8 500 Kg/Cu M 82 1 4
64 129 81 1 59 153 140 52 501 0 0 0 502 70 60 0 4 T52 0 0 4 20 1 503 503 13 62 3
0 0 52 0 504 0 0 505 0 51 63 29 0 504 506 0 0 -.0448885607790078 0 .09275 0 0 1
 .005 -1 0 0 31 64 24 0 507 508 0 0 +.0448885607790078 0 .10275 0 0 1 1 0 0 .005
 19 65 1 0 52 505 0 509 V0 16 66 2 510 ?511 0 507 508 0 0 52 81 1 510 145 177 66
 0 0 512 513 514 17 511 0 515 511 511 0 516 66 0 0 +16 507 21 512 ?517 66 0 64 0
 0 52 31 508 4 0 66 0 64 0 +.0448885607790078 0 .09275 0 0 1 1 0 0 .005 81 1 512
 144 177 507 0 0 0 510 518 17 517 0 519 517 517 0 520 507 0 0 +15 519 20 0 517 5
21 0 17 520 0 522 520 520 0 517 507 0 0 -15 522 27 0 520 504 0 14 504 26 523 ?52
4 0 515 62 63 -0 0 524 0 509 81 1 523 150 194 504 525 0 0 526 527 14 524 6 526 ?
521 504 528 62 529 +0 0 521 504 509 15 515 25 0 511 504 522 13 509 3 0 0 0 0 0 0
 65 504 81 1 526 151 194 524 513 0 523 530 531 14 521 17 530 ?0 524 519 62 506 -
0 0 0 524 509 15 528 5 0 516 524 0 50 529 7 0 524 0 506 0 +.0448885607790078 0 .
09275 0 0 -1 1 0 0 50 506 23 0 521 529 63 0 +.0448885607790078 0 .10275 0 0 -1 1
 0 0 17 516 0 528 516 516 0 511 66 0 0 -81 1 530 152 194 521 532 0 526 0 533 81
 1 532 147 177 521 0 530 513 525 534 83 3 533 .596063172350652 .666666666666667
 .686259250782025 81 1 513 146 177 524 0 526 510 532 535 81 1 525 148 177 504 0
 523 532 0 536 84 32 534 c49fef679ac2bf28b70b67675af38a4e84 32 536 48045662137ec
867c766c874c3f840ad84 32 535 eeffc43ae16189878313cd54ceb70d1b83 3 531 .596063172
350652 .666666666666667 .686259250782025 83 3 527 .596063172350652 .666666666666
667 .686259250782025 84 32 518 7bc18534cc97a0ed67b9be532a35a30484 32 514 7124bc2
89b5d74bc8eabafb07adc265319 505 31 0 52 0 65 62 S0 74 20 503 4 0 0 525 501 530 5
9 0 0 0 0 0 0 0 0 0 0 0 0 0 0 0 0 81 2 501 149 228 52 0 59 0 0 537 538 83 1 537
 7830.64 84 8 538 Kg/Cu M 82 1 502 129 81 1 50 153 140 43 539 0 0 0 540 70 51 0
 4 T43 0 0 4 20 1 541 541 13 53 30 0 43 0 542 0 0 543 0 51 54 29 0 542 544 0 0 -
.0448885607790078 0 .10275 0 0 1 .005 -1 0 0 31 55 24 0 545 546 0 0 +.0448885607
790078 0 .11275 0 0 1 1 0 0 .005 19 56 1 0 43 543 0 547 V0 16 57 2 548 ?549 0 54
5 546 0 0 43 81 1 548 145 177 57 0 0 550 551 552 17 549 0 553 549 549 0 554 57 0
 0 +16 545 21 550 ?555 57 0 55 0 0 43 31 546 4 0 57 0 55 0 +.0448885607790078 0
 .10275 0 0 1 1 0 0 .005 81 1 550 144 177 545 0 0 0 548 556 17 555 0 557 555 555
 0 558 545 0 0 +15 557 20 0 555 559 0 17 558 0 560 558 558 0 555 545 0 0 -15 560
 27 0 558 542 0 14 542 26 561 ?562 0 553 53 54 -0 0 562 0 547 81 1 561 150 194 5
42 563 0 0 564 565 14 562 6 564 ?559 542 566 53 567 +0 0 559 542 547 15 553 25 0
 549 542 560 13 547 3 0 0 0 0 0 0 56 542 81 1 564 151 194 562 568 0 561 569 570
 14 559 17 569 ?0 562 557 53 544 -0 0 0 562 547 15 566 5 0 554 562 0 50 567 7 0
 562 0 544 0 +.0448885607790078 0 .10275 0 0 -1 1 0 0 50 544 23 0 559 567 54 0 +
.0448885607790078 0 .11275 0 0 -1 1 0 0 17 554 0 566 554 554 0 549 57 0 0 -81 1
 569 152 194 559 551 0 564 0 571 81 1 551 146 177 559 0 569 548 568 572 83 3 571
 .596063172350652 .666666666666667 .686259250782025 81 1 568 147 177 562 0 564 5
51 563 573 84 32 572 f9fb623886df9e3e61a8c18dfc48cbd381 1 563 148 177 542 0 561
 568 0 574 84 32 573 13f04c931848873218aa9db6784ac80884 32 574 a386b6aa6b03cac41
00cee238687752683 3 570 .596063172350652 .666666666666667 .686259250782025 83 3
 565 .596063172350652 .666666666666667 .686259250782025 84 32 556 b0cbfd983046c4
831ed63c456064b65384 32 552 7bc18534cc97a0ed67b9be532a35a30419 543 31 0 43 0 56
 53 S0 74 20 541 4 0 0 563 539 569 50 0 0 0 0 0 0 0 0 0 0 0 0 0 0 0 0 81 2 539 1
49 228 43 0 50 0 0 575 576 83 1 575 7830.64 84 8 576 Kg/Cu M 82 1 540 129 81 1 4
1 153 140 34 577 0 0 0 578 70 42 0 4 T34 0 0 4 20 1 579 579 13 44 30 0 34 0 580
 0 0 581 0 51 45 29 0 580 582 0 0 -.0448885607790078 0 .11275 0 0 1 .005 -1 0 0
 31 46 24 0 583 584 0 0 +.0448885607790078 0 .12275 0 0 1 1 0 0 .005 19 47 1 0 3
4 581 0 585 V0 16 48 2 586 ?587 0 583 584 0 0 34 81 1 586 145 177 48 0 0 588 589
 590 17 587 0 591 587 587 0 592 48 0 0 +16 583 21 588 ?593 48 0 46 0 0 34 31 584
 4 0 48 0 46 0 +.0448885607790078 0 .11275 0 0 1 1 0 0 .005 81 1 588 144 177 583
 0 0 0 586 594 17 593 0 595 593 593 0 596 583 0 0 +15 595 20 0 593 597 0 17 596
 0 598 596 596 0 593 583 0 0 -15 598 27 0 596 580 0 14 580 26 599 ?600 0 591 44
 45 -0 0 600 0 585 81 1 599 150 194 580 601 0 0 602 603 14 600 6 602 ?597 580 60
4 44 605 +0 0 597 580 585 15 591 25 0 587 580 598 13 585 3 0 0 0 0 0 0 47 580 81
 1 602 151 194 600 606 0 599 607 608 14 597 17 607 ?0 600 595 44 582 -0 0 0 600
 585 15 604 5 0 592 600 0 50 605 7 0 600 0 582 0 +.0448885607790078 0 .11275 0 0
 -1 1 0 0 50 582 23 0 597 605 45 0 +.0448885607790078 0 .12275 0 0 -1 1 0 0 17 5
92 0 604 592 592 0 587 48 0 0 -81 1 607 152 194 597 589 0 602 0 609 81 1 589 146
 177 597 0 607 586 606 610 83 3 609 .596063172350652 .666666666666667 .686259250
782025 81 1 606 147 177 600 0 602 589 601 611 84 32 610 c2aedc2806ac8c31cfa9d10d
ee46d33281 1 601 148 177 580 0 599 606 0 612 84 32 611 1f6f259cf714ecc16ce1d81fa
57fd89184 32 612 17d3857311cd76b7c6fb3c7f518ae19283 3 608 .596063172350652 .6666
66666666667 .686259250782025 83 3 603 .596063172350652 .666666666666667 .6862592
50782025 84 32 594 2d4b8d981dbfcce639710a65673a233b84 32 590 b0cbfd983046c4831ed
63c456064b65319 581 31 0 34 0 47 44 S0 74 20 579 4 0 0 601 577 607 41 0 0 0 0 0
 0 0 0 0 0 0 0 0 0 0 0 81 2 577 149 228 34 0 41 0 0 613 614 83 1 613 7830.64 84
 8 614 Kg/Cu M 82 1 578 129 81 1 32 153 140 25 615 0 0 0 616 70 33 0 4 T25 0 0 4
 20 1 617 617 13 35 30 0 25 0 618 0 0 619 0 51 36 29 0 618 620 0 0 -.04488856077
90078 0 .12275 0 0 1 .005 -1 0 0 31 37 24 0 621 622 0 0 +.0448885607790078 0 .13
275 0 0 1 1 0 0 .005 19 38 1 0 25 619 0 623 V0 16 39 2 624 ?625 0 621 622 0 0 25
 81 1 624 144 177 39 0 0 0 626 627 17 625 0 628 625 625 0 629 39 0 0 +16 621 21
 626 ?630 39 0 37 0 0 25 31 622 4 0 39 0 37 0 +.0448885607790078 0 .12275 0 0 1
 1 0 0 .005 81 1 626 145 177 621 0 0 624 631 632 17 630 0 633 630 630 0 634 621
 0 0 +15 633 20 0 630 635 0 17 634 0 636 634 634 0 630 621 0 0 -15 636 27 0 634
 618 0 14 618 26 637 ?638 0 628 35 36 -0 0 638 0 623 81 1 637 150 194 618 639 0
 0 640 641 14 638 6 640 ?635 618 642 35 643 +0 0 635 618 623 15 628 25 0 625 618
 636 13 623 3 0 0 0 0 0 0 38 618 81 1 640 151 194 638 631 0 637 644 645 14 635 1
7 644 ?0 638 633 35 620 -0 0 0 638 623 15 642 5 0 629 638 0 50 643 7 0 638 0 620
 0 +.0448885607790078 0 .12275 0 0 -1 1 0 0 50 620 23 0 635 643 36 0 +.044888560
7790078 0 .13275 0 0 -1 1 0 0 17 629 0 642 629 629 0 625 39 0 0 -81 1 644 152 19
4 635 646 0 640 0 647 81 1 646 148 177 635 0 644 639 0 648 83 3 647 .59606317235
0652 .666666666666667 .686259250782025 81 1 639 147 177 618 0 637 631 646 649 84
 32 648 c8808da1acf1af0385177151257de24a81 1 631 146 177 638 0 640 626 639 650 8
4 32 649 17315a599204b4c5037fd39948fd06f984 32 650 61db92c7b945f453633a27c603563
23b83 3 645 .596063172350652 .666666666666667 .686259250782025 83 3 641 .5960631
72350652 .666666666666667 .686259250782025 84 32 632 a1d0a81bfccad4718ed0f0fd749
c60de84 32 627 2d4b8d981dbfcce639710a65673a233b19 619 31 0 25 0 38 35 S0 74 20 6
17 4 0 0 646 615 644 32 0 0 0 0 0 0 0 0 0 0 0 0 0 0 0 0 81 2 615 149 228 25 0 32
 0 0 651 652 83 1 651 7830.64 84 8 652 Kg/Cu M 82 1 616 129 81 1 23 153 140 16 6
53 0 0 0 654 70 24 0 4 T16 0 0 4 20 1 655 655 13 26 30 0 16 0 656 0 0 657 0 51 2
7 29 0 656 658 0 0 -.0448885607790078 0 .13275 0 0 1 .005 -1 0 0 31 28 24 0 659
 660 0 0 +.0448885607790078 0 .14275 0 0 1 1 0 0 .005 19 29 1 0 16 657 0 661 V0
 16 30 2 662 ?663 0 659 660 0 0 16 81 1 662 144 177 30 0 0 0 664 665 17 663 0 66
6 663 663 0 667 30 0 0 +16 659 21 664 ?668 30 0 28 0 0 16 31 660 4 0 30 0 28 0 +
.0448885607790078 0 .13275 0 0 1 1 0 0 .005 81 1 664 145 177 659 0 0 662 669 670
 17 668 0 671 668 668 0 672 659 0 0 +15 671 20 0 668 673 0 17 672 0 674 672 672
 0 668 659 0 0 -15 674 27 0 672 656 0 14 656 26 675 ?676 0 666 26 27 -0 0 676 0
 661 81 1 675 150 194 656 677 0 0 678 679 14 676 6 678 ?673 656 680 26 681 +0 0
 673 656 661 15 666 25 0 663 656 674 13 661 3 0 0 0 0 0 0 29 656 81 1 678 151 19
4 676 669 0 675 682 683 14 673 17 682 ?0 676 671 26 658 -0 0 0 676 661 15 680 5
 0 667 676 0 50 681 7 0 676 0 658 0 +.0448885607790078 0 .13275 0 0 -1 1 0 0 50
 658 23 0 673 681 27 0 +.0448885607790078 0 .14275 0 0 -1 1 0 0 17 667 0 680 667
 667 0 663 30 0 0 -81 1 682 152 194 673 684 0 678 0 685 81 1 684 148 177 673 0 6
82 677 0 686 83 3 685 .596063172350652 .666666666666667 .686259250782025 81 1 67
7 147 177 656 0 675 669 684 687 84 32 686 37f7996cb11515467c606bc59514d2e481 1 6
69 146 177 676 0 678 664 677 688 84 32 687 e8e9ada28e341809c83e5e3dce6e11f684 32
 688 1144d6fd7a641a6da52ddc14e4ca916f83 3 683 .596063172350652 .666666666666667
 .686259250782025 83 3 679 .596063172350652 .666666666666667 .686259250782025 84
 32 670 c1df50b1d6ecce7f46660e37707db95684 32 665 a1d0a81bfccad4718ed0f0fd749c60
de19 657 31 0 16 0 29 26 S0 74 20 655 4 0 0 684 653 682 23 0 0 0 0 0 0 0 0 0 0 0
 0 0 0 0 0 81 2 653 149 228 16 0 23 0 0 689 690 83 1 689 7830.64 84 8 690 Kg/Cu
 M 82 1 654 129 81 1 14 153 140 7 691 0 0 0 692 70 15 0 4 T7 0 0 4 20 1 693 693
 13 17 30 0 7 0 694 0 0 695 0 51 18 29 0 694 696 0 0 -.0448885607790078 0 .14275
 0 0 1 .005 -1 0 0 31 19 24 0 697 698 0 0 +.0448885607790078 0 .15275 0 0 1 1 0
 0 .005 19 20 1 0 7 695 0 699 V0 16 21 2 700 ?701 0 697 698 0 0 7 81 1 700 144 1
77 21 0 0 0 702 703 17 701 0 704 701 701 0 705 21 0 0 +16 697 21 702 ?706 21 0 1
9 0 0 7 31 698 4 0 21 0 19 0 +.0448885607790078 0 .14275 0 0 1 1 0 0 .005 81 1 7
02 145 177 697 0 0 700 707 708 17 706 0 709 706 706 0 710 697 0 0 +15 709 20 0 7
06 711 0 17 710 0 712 710 710 0 706 697 0 0 -15 712 27 0 710 694 0 14 694 26 713
 ?714 0 704 17 18 -0 0 714 0 699 81 1 713 150 194 694 707 0 0 715 716 14 714 6 7
15 ?711 694 717 17 718 +0 0 711 694 699 15 704 25 0 701 694 712 13 699 3 0 0 0 0
 0 0 20 694 81 1 715 151 194 714 719 0 713 720 721 14 711 17 720 ?0 714 709 17 6
96 -0 0 0 714 699 15 717 5 0 705 714 0 50 718 7 0 714 0 696 0 +.0448885607790078
 0 .14275 0 0 -1 1 0 0 50 696 23 0 711 718 18 0 +.0448885607790078 0 .15275 0 0
 -1 1 0 0 17 705 0 717 705 705 0 701 21 0 0 -81 1 720 152 194 711 722 0 715 0 72
3 81 1 722 147 177 711 0 720 707 719 724 83 3 723 .596063172350652 .666666666666
667 .686259250782025 81 1 707 146 177 694 0 713 702 722 725 81 1 719 148 177 714
 0 715 722 0 726 84 32 724 7e59cbcb98e3eca2cc175ad9435843df84 32 726 920bb29b595
c215159ada81c6259a64984 32 725 bc0c69daff2b32338824647b4f8a7e1483 3 721 .5960631
72350652 .666666666666667 .686259250782025 83 3 716 .596063172350652 .6666666666
66667 .686259250782025 84 32 708 5ea372339f2d63952aa1eedbee6a666984 32 703 c1df5
0b1d6ecce7f46660e37707db95619 695 31 0 7 0 20 17 S0 74 20 693 4 0 0 719 691 720
 14 0 0 0 0 0 0 0 0 0 0 0 0 0 0 0 0 81 2 691 149 228 7 0 14 0 0 727 728 83 1 727
 7830.64 84 8 728 Kg/Cu M 82 1 692 129 81 1 5 55 140 3 729 0 0 0 730 70 6 0 4 T3
 0 0 4 20 1 731 731 13 8 30 0 3 0 732 0 0 733 0 51 9 29 0 732 734 0 0 -0 0 .6 0
 0 -1 .076 -1 0 0 31 10 24 0 735 736 0 0 +0 0 0 0 0 1 1 0 0 .076 19 11 1 0 3 733
 0 737 V0 16 12 2 738 ?739 0 735 736 0 0 3 81 1 738 47 177 12 0 0 740 741 742 17
 739 0 743 739 739 0 744 12 0 0 +16 735 21 740 ?745 12 0 10 0 0 3 31 736 4 0 12
 0 10 0 +0 0 .6 0 0 1 1 0 0 .076 81 1 740 46 177 735 0 0 0 738 746 17 745 0 747
 745 745 0 748 735 0 0 +15 747 27 0 745 732 0 17 748 0 749 748 748 0 745 735 0 0
 -15 749 20 0 748 750 0 14 750 17 751 ?0 752 749 8 734 -0 0 0 752 737 81 1 751 5
4 194 750 753 0 754 0 755 14 752 6 754 ?750 732 743 8 756 +0 0 750 732 737 50 73
4 23 0 750 756 9 0 +0 0 0 0 0 1 1 0 0 13 737 3 0 0 0 0 0 0 11 732 14 732 26 757
 ?752 0 758 8 9 -0 0 752 0 737 81 1 757 52 194 732 741 0 0 754 759 15 758 25 0 7
44 732 747 17 744 0 758 744 744 0 739 12 0 0 -81 1 741 48 177 732 0 757 738 753
 760 81 1 754 53 194 752 761 0 757 751 762 83 3 759 .596063172350652 .6666666666
66667 .686259250782025 81 1 761 50 177 752 0 754 753 0 763 83 3 762 .59606317235
0652 .666666666666667 .686259250782025 81 1 753 49 177 750 0 751 741 761 764 84
 32 763 a2b1036809abac5687a6ea45907e8b2384 32 764 7510360484b91c39ac0de95cd364c5
7884 32 760 61266a9a8efd9ccac0f15eb273e149c750 756 7 0 752 0 734 0 +0 0 .6 0 0 1
 1 0 0 15 743 5 0 739 752 0 83 3 755 .596063172350652 .666666666666667 .68625925
0782025 84 32 746 2b8ef89bdd0eff001b078c9b6792dc0684 32 742 1f25544c6ef8f0fa6468
8fb485b6525919 733 31 0 3 0 11 8 S0 74 20 731 4 0 0 761 729 751 5 0 0 0 0 0 0 0
 0 0 0 0 0 0 0 0 0 81 2 729 51 228 3 0 5 0 0 765 766 83 1 765 7830.64 84 8 766 K
g/Cu M 82 1 730 129 1 0 
